<?xml version="1.0" encoding="UTF-8"?>
<svg width="24px" height="24px" viewBox="0 0 24 24" version="1.1" xmlns="http://www.w3.org/2000/svg">
    <g stroke="none" stroke-width="1" fill="none" fill-rule="evenodd">
        <path d="M18,4 L20,4 L20,20 L4,20 L4,4 L18,4 Z M18,2 L4,2 C2.9,2 2,2.9 2,4 L2,20 C2,21.1 2.9,22 4,22 L20,22 C21.1,22 22,21.1 22,20 L22,4 C22,2.9 21.1,2 20,2 L18,2 Z M12,17 L17,12 L7,12 L12,17 Z M7,10 L17,10 L12,5 L7,10 Z" fill="#E50914" fill-rule="nonzero"></path>
    </g>
</svg> 